<svg viewBox="0 0 32 32" xml:space="preserve" xmlns="http://www.w3.org/2000/svg" enable-background="new 0 0 32 32"><path d="M25.899 6.111C20.507.721 11.681.665 6.225 5.987 1.6 10.498.682 17.652 3.966 23.162l-1.039 3.876c-.156.58.005 1.181.43 1.605a1.643 1.643 0 0 0 1.604.43l3.878-1.039a13.905 13.905 0 0 0 7.127 1.948c3.631 0 7.243-1.394 9.932-4.081A13.891 13.891 0 0 0 30 16.006c0-3.738-1.456-7.252-4.101-9.895zm-6.446 19.016h-6.906a1 1 0 1 1 0-2H15v-7.665h-2.453a1 1 0 0 1 0-2H16a1 1 0 0 1 1 1v8.665h2.453a1 1 0 1 1 0 2zM16 6.873c1.542 0 2.796 1.254 2.796 2.795S17.542 12.462 16 12.462c-1.542 0-2.796-1.253-2.796-2.794S14.458 6.873 16 6.873z" fill="#e4edf2" class="fill-e4edf2"></path><path d="M16 12.462c1.542 0 2.796-1.253 2.796-2.794S17.542 6.873 16 6.873c-1.542 0-2.796 1.254-2.796 2.795s1.254 2.794 2.796 2.794zM19.453 23.127H17v-8.665a1 1 0 0 0-1-1h-3.453a1 1 0 0 0 0 2H15v7.665h-2.453a1 1 0 1 0 0 2h6.906a1 1 0 1 0 0-2z" fill="#00bfa5" class="fill-55c1fa"></path></svg>